<svg width="636.000000" height="414.000000" viewBox="0 0 636 414" fill="none" xmlns="http://www.w3.org/2000/svg" xmlns:xlink="http://www.w3.org/1999/xlink">
	<desc>
			Created with Pixso.
	</desc>
	<defs>
		<clipPath id="clip2_1">
			<rect id="画板 1" width="636.000000" height="414.000000" fill="white" fill-opacity="0"/>
		</clipPath>
	</defs>
	<rect width="636.000000" height="414.000000" fill="#EFEFEF"/>
	<rect id="画板 1" width="636.000000" height="414.000000" fill="#000000" fill-opacity="1.000000"/>
	<g clip-path="url(#clip2_1)">
		<path id="无信号" d="M340.07 160.65C342.86 164.68 345.75 169.77 347.08 173.12L340.66 175.91C339.39 172.56 336.42 167.07 334.03 163.14L340.07 160.65ZM285.44 199.14C294.09 189.83 301.96 175.53 306.86 161.03L313.19 162.95C310.99 169.37 308.2 175.82 305.13 181.86L305.13 248.68L298.52 248.68L298.52 193.37C295.64 197.99 292.45 202.11 289.38 205.77C288.72 204.22 286.71 200.78 285.44 199.14ZM396.04 164.59L455.95 164.59L455.95 190.21L396.04 190.21L396.04 164.59ZM242.43 235.04C242.43 238.39 243.3 239.17 248.2 239.17L264.91 239.17C269.62 239.17 270.37 236.96 270.96 223.91C272.6 225.15 275.76 226.39 277.78 226.89C276.82 242.14 274.61 246.08 265.38 246.08L247.54 246.08C237.65 246.08 235.05 243.6 235.05 235.04L235.05 202.3L233.03 202.3C229.1 220.84 219.51 238.51 194.93 248.38C193.87 246.57 191.85 243.88 190.12 242.54C212.69 233.99 221.9 218.73 225.93 202.3L191.36 202.3L191.36 195.29L227.18 195.29C228.32 188.19 228.63 180.9 228.91 174.08L197.32 174.08L197.32 167.17L271.43 167.17L271.43 174.08L235.92 174.08C235.73 180.9 235.24 188.19 234.18 195.29L276.91 195.29L276.91 202.3L242.43 202.3L242.43 235.04ZM403.05 183.88L448.57 183.88L448.57 171.01L403.05 171.01L403.05 183.88ZM311.95 182.54L311.95 176.47L372.72 176.47L372.72 182.54L311.95 182.54ZM318.86 190.21L365.13 190.21L365.13 196.07L318.86 196.07L318.86 190.21ZM467.27 198.85L467.27 205.37L411.89 205.37C410.83 208.93 409.59 212.59 408.42 215.94L455.95 215.94C455.95 215.94 455.85 218.24 455.57 219.29C453.35 235.23 450.96 242.43 447.49 245.4C445.28 247.42 442.89 248 439.24 248.19C436.07 248.28 429.65 248.19 423.11 247.82C422.93 245.71 421.96 242.92 420.63 241C427.43 241.68 434.25 241.77 437.03 241.77C439.24 241.77 440.48 241.68 441.56 240.81C443.95 238.98 445.87 233.71 447.6 222.57L402.09 222.57L402.09 222.46L397.78 222.46C399.79 217.86 402.09 211.23 404.1 205.37L384.32 205.37L384.32 198.85L467.27 198.85ZM365.13 209.52L318.86 209.52L318.86 203.66L365.13 203.66L365.13 209.52ZM323.76 248.38L317.53 248.38L317.53 217.58L366.09 217.58L366.09 248.1L359.76 248.1L359.76 244.65L323.76 244.65L323.76 248.38ZM359.76 238.7L359.76 223.53L323.76 223.53L323.76 238.7L359.76 238.7Z" fill="#FFFFFF" fill-opacity="1.000000" fill-rule="evenodd"/>
	</g>
</svg>
