<svg t="1715497298045" class="icon" viewBox="0 0 1024 1024" version="1.1" xmlns="http://www.w3.org/2000/svg" p-id="7841" width="200" height="200"><path d="M362.496 771.584c6.144 36.864-5.12 76.288-33.792 104.448-47.104 47.104-123.904 47.104-171.008 0s-47.104-123.904 0-171.008c28.672-28.672 67.584-39.936 104.448-33.792 12.8-13.824 24.576-27.648 35.328-40.448-58.88-19.968-126.976-6.656-173.568 40.448-65.536 65.536-65.536 172.544 0 238.592 65.536 65.536 172.544 65.536 238.592 0 47.104-47.104 60.416-114.688 40.448-173.568-13.312 10.24-26.624 22.016-40.448 35.328z m370.688-146.432c10.24 12.8 22.016 26.624 34.816 40.448 36.864-5.632 75.776 5.632 104.448 33.792 47.104 47.104 47.104 123.904 0 171.008s-123.904 47.104-171.008 0c-28.16-28.16-39.424-67.584-33.792-104.448-13.824-12.8-27.648-24.576-40.448-34.816-19.456 58.88-6.144 125.952 40.448 173.056 65.536 65.536 172.544 65.536 238.592 0 65.536-65.536 65.536-172.544 0-238.592-47.104-46.592-114.176-60.416-173.056-40.448z m-62.976-361.984c-5.632-36.864 5.632-76.288 33.792-104.448 47.104-47.104 123.904-47.104 171.008 0s47.104 123.904 0 171.008c-28.16 28.16-67.584 39.424-104.448 33.792-13.312 14.336-25.088 27.648-34.816 40.448 58.88 19.968 126.464 6.144 173.056-40.448 65.536-65.536 65.536-172.544 0-238.592-65.536-65.536-172.544-65.536-238.592 0-46.592 46.592-60.416 114.688-40.448 173.568 12.288-9.728 25.6-21.504 40.448-35.328zM290.304 391.68c-10.752-12.8-23.04-26.112-35.84-39.936-36.864 6.144-76.288-5.12-104.96-33.792-47.104-47.104-47.104-123.392 0-170.496 47.104-47.104 123.904-47.104 171.008 0 28.672 28.672 39.936 68.096 33.792 104.96 13.824 12.8 27.136 25.088 39.936 35.84 20.48-59.392 7.168-127.488-39.936-175.104-65.536-65.536-172.544-65.536-238.592 0C49.664 179.2 49.664 286.208 115.712 351.744c47.104 47.616 115.712 60.928 174.592 39.936zM517.632 466.432c-13.312 0-25.6 5.12-34.816 14.336-9.216 9.216-14.336 21.504-14.336 34.816 0 13.312 5.12 25.6 14.336 34.816 9.216 9.216 21.504 14.336 34.816 14.336 13.312 0 25.6-5.12 34.816-14.336 18.944-18.944 18.944-50.176 0-69.632-9.216-9.216-21.504-14.336-34.816-14.336z" p-id="7842"></path><path d="M753.152 802.816c2.56 3.072 9.728 10.752 11.264 12.288l0.512 0.512c0.512 1.024 1.024 1.024 1.024 1.024 16.896 14.848 40.96 16.384 54.784 2.048 13.312-13.312 13.312-35.328 0.512-51.712-1.536-1.536-8.192-8.704-10.752-10.752-1.536-1.024-2.56-2.048-3.072-2.56-38.4-35.84-164.352-157.696-161.792-229.376v-18.944c-0.512-71.68 123.904-192.512 161.792-227.84 0.512-0.512 1.536-1.536 3.072-2.56 2.048-2.048 9.216-8.704 10.752-10.752 12.288-16.384 12.8-38.4-0.512-51.712-14.336-14.336-38.4-12.8-54.784 2.048l-1.024 1.024-0.512 0.512c-1.536 1.536-8.192 9.216-11.264 12.288-37.888 40.448-148.992 153.6-219.648 158.72-5.632 0.512-24.576 0.512-29.184 0C432.128 384 314.368 262.656 279.552 225.28c-0.512-0.512-1.536-1.536-2.56-3.072-2.048-2.048-8.704-9.216-10.752-10.752-16.384-12.288-38.4-12.8-51.712 0.512-14.336 14.336-12.8 38.4 2.048 54.784l1.024 1.024 0.512 0.512c1.536 1.536 9.216 8.192 12.288 11.264 39.424 36.864 147.456 143.36 158.208 214.016 1.024 7.68 1.024 38.4-1.024 48.128-14.848 70.656-118.784 173.056-157.184 208.384-3.072 2.56-10.752 9.728-12.288 11.264l-0.512 0.512c-1.024 0.512-1.024 1.024-1.024 1.024-14.848 16.896-16.384 40.96-2.048 54.784 13.312 13.312 35.328 13.312 51.712 0.512 1.536-1.536 8.704-8.192 10.752-10.752 1.024-1.536 2.048-2.56 2.56-3.072 34.304-36.864 147.456-153.6 219.648-161.28 6.656-0.512 29.696-0.512 35.84 0 70.656 8.192 180.736 119.808 218.112 159.744z m-181.248-232.96c-14.336 14.336-33.792 22.528-54.272 22.528s-39.424-8.192-54.272-22.528c-14.336-14.336-22.528-33.792-22.528-54.272s8.192-39.424 22.528-54.272c14.336-14.336 33.792-22.528 54.272-22.528s39.424 8.192 54.272 22.528c29.696 30.208 29.696 78.336 0 108.544z" p-id="7843"></path></svg>